<?xml version="1.0" encoding="UTF-8" standalone="yes"?>
<!DOCTYPE svg PUBLIC "-//W3C//DTD SVG 1.1//EN" "http://www.w3.org/Graphics/SVG/1.1/DTD/svg11.dtd">

<svg width="500" height="500" viewBox="0 0 500 500" xmlns="http://www.w3.org/2000/svg" xmlns:xlink="http://www.w3.org/1999/xlink" version="1.1" baseProfile="full">
    <g transform="scale(1,-1) translate(0,-500)">
        <path class="primary" d="M 52.049000 108.109100 L 57.466100 110.521800 L 62.739000 113.182600 L 67.860200 116.083700 L 72.821900 119.217600 L 77.616500 122.576700 L 82.236300 126.153400 L 84.640800 128.205500 L 1.330400 177.711000 L 50.742400 107.601500 Z" transform="scale(1.000000,1.000000) translate(125.000000,47.000000)" fill="#e9eaec" opacity="1.000000"></path>
        <path class="primary" d="M 102.443900 21.644800 L 105.853400 26.368500 L 109.034300 31.256900 L 111.978900 36.302400 L 114.679600 41.497400 L 117.128500 46.834400 L 119.318200 52.305700 L 121.240800 57.903900 L 122.452000 62.106100 L 122.477800 62.216300 L 122.914500 63.731400 L 123.088500 64.474200 L 123.127600 64.470900 L 124.125700 67.933700 L 126.048300 73.531800 L 128.237900 79.003200 L 130.686900 84.340200 L 133.387600 89.535200 L 136.332200 94.580700 L 139.513100 99.469000 L 142.922600 104.192800 L 146.553000 108.744300 L 150.396700 113.116000 L 154.445900 117.300300 L 158.693000 121.289700 L 163.130200 125.076500 L 167.750000 128.653300 L 172.544600 132.012400 L 177.506300 135.146300 L 182.627500 138.047400 L 187.900400 140.708100 L 193.317400 143.120900 L 198.870900 145.278200 L 204.553000 147.172400 L 205.046000 147.310300 L 124.649900 278.565200 L 1.330400 74.767800 L 99.108000 17.462500 Z" transform="scale(1.000000,1.000000) translate(125.000000,173.000000)" fill="#e9eaec" opacity="1.000000"></path>
        <path class="seconday" d="M 249.479600 177.711000 L 125.567000 103.885900 L 84.640800 128.205500 L 82.236300 126.153400 L 77.616500 122.576700 L 72.821900 119.217600 L 67.860200 116.083700 L 62.739000 113.182600 L 57.466100 110.521800 L 52.049000 108.109100 L 50.742400 107.601500 L 125.567000 1.434700 Z" transform="scale(1.000000,1.000000) translate(125.000000,47.000000)" fill="#fad02c" opacity="1.000000"></path>
        <path class="secondary" d="M 249.479700 74.767800 L 205.046000 147.310300 L 204.553000 147.172400 L 198.870900 145.278200 L 193.317400 143.120900 L 187.900400 140.708100 L 182.627500 138.047400 L 177.506300 135.146300 L 172.544600 132.012400 L 167.750000 128.653300 L 163.130200 125.076500 L 158.693000 121.289700 L 154.445900 117.300300 L 150.396700 113.116000 L 146.553000 108.744300 L 142.922600 104.192800 L 139.513100 99.469000 L 136.332200 94.580700 L 133.387600 89.535200 L 130.686900 84.340200 L 128.237900 79.003200 L 126.048300 73.531800 L 124.125700 67.933700 L 122.477800 62.216300 L 121.112200 56.387200 L 120.036800 50.454000 L 119.259100 44.424300 L 118.786800 38.305600 L 118.627700 32.105600 L 118.786800 25.905500 L 119.259100 19.786800 L 120.036800 13.757100 L 121.112200 7.823900 L 121.996900 4.047800 L 125.593800 1.939700 Z" transform="scale(1.000000,1.000000) translate(125.000000,173.000000)" fill="#fad02c" opacity="1.000000"></path>
        <path class="secondary" d="M 249.479600 74.767800 L 125.405000 64.278400 L 123.088500 64.474200 L 122.888700 63.621300 L 121.240800 57.903900 L 119.318200 52.305700 L 117.128500 46.834400 L 114.679600 41.497400 L 111.978900 36.302400 L 109.034300 31.256900 L 105.853400 26.368500 L 102.443900 21.644800 L 99.060600 17.403100 L 125.405000 1.939700 Z" transform="scale(1.000000,1.000000) translate(125.000000,173.000000)" fill="#fad02c" opacity="1.000000"></path>
    </g>
</svg>